name C:\Users\u0101727\Documents\MyRepositories\upper-imu-dc\Results\main_mocap_tracking\Case_8\kinematics.mot
datacolumns 12
datarows 47
range 2.00000000 2.46000000
endheader 
time	clav_prot	clav_elev	scapula_abduction	scapula_elevation	scapula_upward_rot	scapula_winging	plane_elv	shoulder_elv	axial_rot	elbow_flexion	pro_sup	
          2.00000000	        -31.05577834	          9.13687768	         -0.15703083	         -1.69921070	         54.87758522	         -7.38055491	         66.99832615	         72.51050114	        -19.78537044	          0.00885474	         34.31914499	
          2.01000000	        -31.26107560	          9.27680394	         -0.22476346	         -1.63628594	         55.27546171	         -7.49104017	         66.72601384	         72.82692349	        -19.97376205	          0.00810080	         34.31924924	
          2.02000000	        -31.46155800	          9.41193953	         -0.28765568	         -1.57522372	         55.66690072	         -7.59865558	         66.45627689	         73.13761246	        -20.07214909	          0.00748839	         34.31932964	
          2.03000000	        -31.65827920	          9.54297815	         -0.34864640	         -1.51561925	         56.05092708	         -7.70375850	         66.19490724	         73.44343741	        -20.05592504	          0.00699416	         34.31938374	
          2.04000000	        -31.85219128	          9.67059697	         -0.41054320	         -1.45708099	         56.42650479	         -7.80670796	         65.94618203	         73.74581127	        -19.91829838	          0.00660328	         34.31941263	
          2.05000000	        -32.04380056	          9.79516793	         -0.47517649	         -1.39940811	         56.79270595	         -7.90771250	         65.71194751	         74.04639662	        -19.67142923	          0.00635912	         34.31941622	
          2.06000000	        -32.23301134	          9.91651844	         -0.54286223	         -1.34274609	         57.14892362	         -8.00673390	         65.49141774	         74.34672833	        -19.34258359	          0.00637816	         34.31939044	
          2.07000000	        -32.41920921	         10.03383820	         -0.61234201	         -1.28765674	         57.49507467	         -8.10348542	         65.28173605	         74.64784699	        -18.96660968	          0.00681555	         34.31932782	
          2.08000000	        -32.60152192	         10.14576084	         -0.68117207	         -1.23507755	         57.83171031	         -8.19751533	         65.07901350	         74.95006536	        -18.57766429	          0.00779356	         34.31922171	
          2.09000000	        -32.77912427	         10.25057274	         -0.74637091	         -1.18619323	         58.15996517	         -8.28832826	         64.87937963	         75.25297887	        -18.20350774	          0.00932589	         34.31907190	
          2.10000000	        -32.95147085	         10.34646712	         -0.80509950	         -1.14226904	         58.48133964	         -8.37549408	         64.67966486	         75.55575475	        -17.86446465	          0.01127418	         34.31888931	
          2.11000000	        -33.11841961	         10.43179019	         -0.85521669	         -1.10448321	         58.79740330	         -8.45872465	         64.47762234	         75.85758550	        -17.57641591	          0.01335589	         34.31869817	
          2.12000000	        -33.28027747	         10.50528276	         -0.89563744	         -1.07376207	         59.10956831	         -8.53793144	         64.27189017	         76.15804919	        -17.35425912	          0.01519507	         34.31853432	
          2.13000000	        -33.43780981	         10.56633404	         -0.92647810	         -1.05061023	         59.41904170	         -8.61328125	         64.06197639	         76.45713983	        -17.21180443	          0.01638512	         34.31843998	
          2.14000000	        -33.59221852	         10.61521103	         -0.94899299	         -1.03495845	         59.72694537	         -8.68524163	         63.84837161	         76.75493899	        -17.15691585	          0.01654348	         34.31845663	
          2.15000000	        -33.74505541	         10.65317554	         -0.96529741	         -1.02608253	         60.03450574	         -8.75458408	         63.63265089	         77.05110769	        -17.18425758	          0.01536171	         34.31861781	
          2.16000000	        -33.89804389	         10.68241975	         -0.97789409	         -1.02263562	         60.34321164	         -8.82231898	         63.41734125	         77.34444758	        -17.26965011	          0.01266413	         34.31894148	
          2.17000000	        -34.05282972	         10.70582517	         -0.98911576	         -1.02279157	         60.65485583	         -8.88956657	         63.20544118	         77.63275915	        -17.36962610	          0.00847527	         34.31942200	
          2.18000000	        -34.21073002	         10.72661091	         -1.00068325	         -1.02446035	         60.97139676	         -8.95739868	         62.99966500	         77.91313273	        -17.42794322	          0.00307535	         34.32002440	
          2.19000000	        -34.37255764	         10.74794690	         -1.01353015	         -1.02553302	         61.29465291	         -9.02669460	         62.80163046	         78.18261364	        -17.38777110	         -0.00298948	         34.32068642	
          2.20000000	        -34.53856276	         10.77258723	         -1.02789088	         -1.02412491	         61.62593983	         -9.09804192	         62.61126937	         78.43898113	        -17.20513827	         -0.00896733	         34.32132794	
          2.21000000	        -34.70848097	         10.80255916	         -1.04353065	         -1.01879363	         61.96578228	         -9.17169018	         62.42667771	         78.68135468	        -16.85847345	         -0.01402899	         34.32186567	
          2.22000000	        -34.88164679	         10.83894269	         -1.05999760	         -1.00870442	         62.31376970	         -9.24755119	         62.24444085	         78.91049533	        -16.35161090	         -0.01743220	         34.32222869	
          2.23000000	        -35.05713595	         10.88179028	         -1.07685228	         -0.99370443	         62.66855101	         -9.32524216	         62.06029351	         79.12882942	        -15.71101983	         -0.01867631	         34.32237199	
          2.24000000	        -35.23391598	         10.93023793	         -1.09387494	         -0.97426783	         63.02794446	         -9.40417233	         61.86988780	         79.34026403	        -14.97975831	         -0.01760978	         34.32228517	
          2.25000000	        -35.41098832	         10.98280940	         -1.11123087	         -0.95130748	         63.38915238	         -9.48366525	         61.66944388	         79.54982818	        -14.21054134	         -0.01446554	         34.32199447	
          2.26000000	        -35.58749523	         11.03783325	         -1.12953291	         -0.92590446	         63.74906609	         -9.56308708	         61.45612053	         79.76315775	        -13.45938165	         -0.00981489	         34.32155679	
          2.27000000	        -35.76276210	         11.09383882	         -1.14975141	         -0.89904268	         64.10460839	         -9.64194028	         61.22805682	         79.98588346	        -12.78038216	         -0.00445147	         34.32104807	
          2.28000000	        -35.93626934	         11.14980858	         -1.17298298	         -0.87143134	         64.45304289	         -9.71989515	         60.98415495	         80.22301635	        -12.22174919	          0.00077302	         34.32054705	
          2.29000000	        -36.10758650	         11.20524382	         -1.20016185	         -0.84344807	         64.79220224	         -9.79676520	         60.72376470	         80.47841890	        -11.82290128	          0.00510697	         34.32012029	
          2.30000000	        -36.27630168	         11.26007931	         -1.23180781	         -0.81518284	         65.12060715	         -9.87244921	         60.44641255	         80.75442932	        -11.61243294	          0.00801595	         34.31981267	
          2.31000000	        -36.44197477	         11.31449598	         -1.26786408	         -0.78655319	         65.43749070	         -9.94686456	         60.15167041	         81.05164416	        -11.60654374	          0.00925403	         34.31964231	
          2.32000000	        -36.60414332	         11.36870005	         -1.30766127	         -0.75744753	         65.74277010	        -10.01989924	         59.83923425	         81.36882534	        -11.80747869	          0.00886916	         34.31960223	
          2.33000000	        -36.76239601	         11.42272331	         -1.35003294	         -0.72786097	         66.03698642	        -10.09140138	         59.50923963	         81.70291801	        -12.20173456	          0.00714670	         34.31966707	
          2.34000000	        -36.91652073	         11.47629510	         -1.39360373	         -0.69799060	         66.32122044	        -10.16122134	         59.16278467	         82.04919087	        -12.75832846	          0.00450662	         34.31980321	
          2.35000000	        -37.06670888	         11.52883227	         -1.43723797	         -0.66825783	         66.59697833	        -10.22930828	         58.80253582	         82.40153598	        -13.42809940	          0.00138353	         34.31997900	
          2.36000000	        -37.21375139	         11.57955856	         -1.48055100	         -0.63924540	         66.86603403	        -10.29583485	         58.43317334	         82.75295995	        -14.14548158	         -0.00187098	         34.32017168	
          2.37000000	        -37.35911858	         11.62770082	         -1.52428888	         -0.61157638	         67.13021787	        -10.36128962	         58.06137112	         83.09625819	        -14.83408221	         -0.00502778	         34.32036816	
          2.38000000	        -37.50482499	         11.67265968	         -1.57036775	         -0.58579611	         67.39115645	        -10.42646877	         57.69509970	         83.42480201	        -15.41644254	         -0.00795103	         34.32056029	
          2.39000000	        -37.65306268	         11.71406737	         -1.62147779	         -0.56231336	         67.65000972	        -10.49233636	         57.34231711	         83.73329106	        -15.82642965	         -0.01052487	         34.32073855	
          2.40000000	        -37.80570704	         11.75172321	         -1.68034442	         -0.54141200	         67.90730633	        -10.55979107	         57.00944040	         84.01826589	        -16.02057041	         -0.01258543	         34.32088776	
          2.41000000	        -37.96387718	         11.78547640	         -1.74890466	         -0.52329687	         68.16297249	        -10.62942996	         56.70013900	         84.27823283	        -15.98435173	         -0.01389931	         34.32098611	
          2.42000000	        -38.12771178	         11.81515064	         -1.82771696	         -0.50812219	         68.41654476	        -10.70140316	         56.41484340	         84.51343946	        -15.73189138	         -0.01419597	         34.32100756	
          2.43000000	        -38.29642238	         11.84057645	         -1.91582846	         -0.49596577	         68.66745321	        -10.77541124	         56.15104632	         84.72547844	        -15.30028269	         -0.01323277	         34.32092728	
          2.44000000	        -38.46857801	         11.86174058	         -2.01112562	         -0.48674361	         68.91525211	        -10.85083948	         55.90420222	         84.91688209	        -14.74117364	         -0.01086747	         34.32072849	
          2.45000000	        -38.64250530	         11.87899504	         -2.11100614	         -0.48009750	         69.15972671	        -10.92697439	         55.66890204	         85.09078665	        -14.11191947	         -0.00711970	         34.32040903	
          2.46000000	        -38.81666865	         11.89321561	         -2.21310961	         -0.47532032	         69.40086648	        -11.00322169	         55.43999696	         85.25068317	        -13.46793126	         -0.00220900	         34.31998536	
